<?xml version="1.0" encoding="UTF-8"?>
<svg id="Layer_1" data-name="Layer 1" xmlns="http://www.w3.org/2000/svg" xmlns:xlink="http://www.w3.org/1999/xlink" viewBox="0 0 600 600">
  <defs>
    <style>
      .cls-1 {
        fill: #fff;
      }

      .cls-2 {
        clip-path: url(#clippath-1);
      }

      .cls-3 {
        fill: url(#radial-gradient);
      }

      .cls-4 {
        clip-path: url(#clippath);
      }

      .cls-5 {
        fill: none;
      }
    </style>
    <clipPath id="clippath">
      <rect class="cls-5" x="0" width="600" height="600"/>
    </clipPath>
    <radialGradient id="radial-gradient" cx="224.06" cy="223.96" fx="224.06" fy="223.96" r=".46" gradientTransform="translate(-136512.54 156658.37) scale(610.61 -698.15)" gradientUnits="userSpaceOnUse">
      <stop offset="0" stop-color="#446a4e"/>
      <stop offset="1" stop-color="#325145"/>
    </radialGradient>
    <clipPath id="clippath-1">
      <rect class="cls-5" x="-49.25" y="-5.46" width="698.5" height="610.92"/>
    </clipPath>
  </defs>
  <g class="cls-4">
    <rect class="cls-3" x="0" y="0" width="600" height="600"/>
  </g>
  <g class="cls-2">
    <path class="cls-1" d="m389.88,208.87c-8.91-3.29-15.99-8.29-21.04-14.86l-.46-.6c-5.99-7.78-11.65-15.14-10.6-29.49.66-8.96.24-15.66-1.31-21.08-1.46-5.1-3.75-8.6-6.17-12.31-.22-.34-.44-.68-.67-1.02-7.44-11.45-19.35-15.56-26.46-18.02-12.93-4.46-28.04-5.77-42.56-3.68-8.38,1.21-16.39,3.53-23.83,6.91-8.26,3.76-15.8,8.82-22.41,15.05-7.21,6.8-13.08,14.77-17.45,23.69-3.54,7.23-6.11,15.12-7.65,23.45-2.58,14.01-1.48,25.22-1.08,28.32,2.89,22.34,13.64,38.58,22.15,48.27l10.43,11.87c.72.82,2.04.01,1.64-1l-5.87-14.67c-5.99-14.96-14.14-44.62-1.44-75.19,3.44-8.29,13.93-33.53,37.33-40.41,6.24-1.84,13.8-2.53,20.22-1.87,7.11.74,12.43,3.09,14.98,6.63.87,1.2,1.23,2.26,1.73,3.74.24.71.51,1.49.85,2.33.16.4.05.86-.29,1.13-.47.37-.97.63-1.48.78-.75.22-3.36-.16-8.38-3-3.6-2.04-7.01-4.53-10.15-7.42l-3.29-3.02c-.54-.49-1.41-.24-1.6.46l-1.17,4.31c-1,3.69-1.72,9.45.49,15.9.63,1.85,1.48,3.63,2.51,5.3.27.45.13,1.03-.31,1.31-9.03,5.72-24.92,18.51-31.78,40.82-1.23,4-3.3,12.18-3.4,22.08-.13,13.52,3.34,25.6,10.32,35.9,4.56,6.74,10.52,12.48,17.69,17.07,6.16,3.94,11.84,6.15,14.9,7.34,10.16,3.96,19.84,5.26,28.15,5.26,5.69,0,10.74-.61,14.87-1.38l6.63-1.25c.86-.16,1.09-1.29.35-1.77l-5.65-3.69c-1.51-.99-14.78-10-14.46-21.7.1-3.69,1.52-8.28,4.22-13.65,1.6-3.19,3.61-6.2,5.95-8.93l-.38-.33c10.34,1.35,20.94,4.08,31.58,8.14l1.21.46c.28.11.58.08.84-.07l1.12-.65c5.95-3.46,11.24-8.23,15.3-13.77,3.82-5.22,6.57-11.05,8.16-17.34l.6-2.37c.12-.48-.14-.98-.61-1.15l-2.29-.85Zm-96.46-83.96c-7.32-.76-15.94.03-23.06,2.13-26.78,7.88-38.28,35.56-42.06,44.66-6.4,15.41-8.58,32.24-6.47,50.03.14,1.14-1.48,1.54-1.88.46-2.02-5.39-3.6-11.36-4.44-17.89-.37-2.83-1.37-13.08,1.01-26.04,3.18-17.28,10.89-31.79,22.91-43.11,15.9-14.98,36.23-20.95,54.88-20.95,9.53,0,18.62,1.56,26.46,4.26,6.62,2.29,16.63,5.74,22.69,15.07.23.35.46.7.68,1.04,3.93,6.01,6.71,10.25,6.58,22.39,0,.45-.31.84-.75.94-3.91.97-9.62,1.52-15.97-.58-5.65-1.87-10.45-5.41-14.28-10.52-2.08-2.78-2.71-4.62-3.38-6.58-.6-1.75-1.22-3.57-2.73-5.66-3.85-5.34-10.83-8.68-20.2-9.65m84.65,101.31c-.31.42-.62.83-.94,1.24-.37.47-1.07.49-1.48.06-1.37-1.45-3.13-2.87-5.38-3.99-7.36-3.66-14.45-1.22-16.45-.38-1.88.78-2.77,2.94-1.98,4.82.79,1.88,2.94,2.77,4.82,1.98.9-.38,5.65-2.14,10.33.19,1.51.75,2.66,1.74,3.52,2.71.37.41.33,1.06-.1,1.41-1.13.92-2.31,1.77-3.52,2.57-.26.17-.58.2-.87.1-12.53-4.58-25.01-7.41-37.13-8.4-.63-.05-1.26-.1-1.87-.14-4.73-.35-8.47-.63-12.59-3.12-6.17-3.73-12.11-11.57-11.46-20.69.38-5.38,2.85-9.52,5.08-12.22.33-.4.29-1-.1-1.34l-4.05-3.61c-.41-.37-1.04-.32-1.4.1-2.99,3.57-6.36,9.15-6.89,16.56-.41,5.78,1.08,11.6,4.29,16.82,2.68,4.35,6.48,8.15,10.71,10.7,4.79,2.89,9.26,3.6,13.59,3.98.74.06,1.14.89.73,1.5-1.15,1.73-2.19,3.52-3.12,5.37-1.19,2.37-4.8,9.56-5,16.76-.24,8.72,4.54,15.94,9.28,20.92.57.6.17,1.6-.66,1.64-8.16.33-18.04-.63-28.48-4.69-5.89-2.3-19.68-7.67-29.16-21.67-13.96-20.62-8.11-44.77-5.98-51.68,6.43-20.89,21.71-32.53,29.64-37.35.24-.15.53-.17.8-.09,1.44.48,2.9.89,4.37,1.24,5.17,1.21,10.53,1.58,15.92,1.09.54-.05.93-.54.87-1.08l-.59-5.4c-.06-.53-.53-.91-1.06-.86-4.57.4-9.1.08-13.47-.94-.78-.18-1.56-.39-2.33-.62l.27-.28c-2.22-2.16-3.92-4.83-4.91-7.71-.38-1.11-.64-2.19-.8-3.23-.13-.84.81-1.42,1.51-.94,1.43.98,2.9,1.9,4.39,2.74,8.14,4.61,11.95,4.3,14.11,3.66,1.09-.32,2.14-.82,3.12-1.47.42-.28.97-.19,1.29.2,5.66,6.9,12.15,10.15,16.73,11.67,6.68,2.21,12.78,2.09,17.47,1.28.6-.1,1.15.36,1.14.97-.21,15.15,6.38,23.73,12.25,31.35l.46.59c5.11,6.65,11.93,11.9,20.3,15.64.46.21.7.73.53,1.21-1.39,3.88-3.32,7.52-5.76,10.86"/>
    <path class="cls-1" d="m341.86,178.43l-10.41-1.42c-1.7-.23-3.27.96-3.51,2.66-.23,1.7.96,3.27,2.66,3.51l10.41,1.42c1.7.23,3.27-.96,3.51-2.66.23-1.7-.96-3.27-2.66-3.51"/>
    <path class="cls-1" d="m368.48,118.97l8.26,4.76h37.08v121.42c0,54.52-50.91,98.89-113.52,98.89s-113.52-44.37-113.52-98.89v-121.42h37.27l7.16-4.14c3.12-1.8,1.84-6.58-1.77-6.58h-53.39v132.14c0,60.43,55.73,109.61,124.24,109.61s124.24-49.18,124.24-109.61V113.02h-54.47c-3.27,0-4.43,4.33-1.59,5.96"/>
    <path class="cls-1" d="m392.61,132.89l2.47,1.42c.16.09.35.14.54.14h6.42c.59,0,1.08.48,1.08,1.08v109.63c0,48.62-46.13,88.18-102.81,88.18s-102.81-39.57-102.81-88.18v-109.63c0-.59.48-1.08,1.08-1.08h6.67c.19,0,.38-.05.54-.15l2.46-1.42c.95-.55.56-2.01-.54-2.01h-12.69c-.59,0-1.08.48-1.08,1.08v113.2c0,50.58,47.71,91.75,106.37,91.75s106.37-41.16,106.37-91.75v-113.2c0-.59-.48-1.08-1.08-1.08h-12.45c-1.1,0-1.49,1.46-.54,2.01"/>
    <path class="cls-1" d="m470.91,207.62l.19-19.14c11.25-1.36,20.83-11.14,21.71-22.5-9.63.56-18.27,7.37-21.65,16.25l.13-13.1c6.47-8.92,6.14-22.16-1.09-30.6-7.39,8.3-7.98,21.53-1.69,30.58l-.13,13.1c-3.21-8.95-11.71-15.93-21.33-16.68.66,11.38,10.05,21.34,21.27,22.93l-.19,19.14c-3.21-8.95-11.71-15.93-21.33-16.68.66,11.37,10.05,21.34,21.27,22.93l-.19,19.14c-3.21-8.95-11.71-15.93-21.33-16.68.66,11.37,10.05,21.34,21.27,22.92l-.19,19.14c-3.21-8.95-11.71-15.93-21.33-16.68h0c.66,11.37,10.05,21.34,21.27,22.93l-.19,19.14c-3.21-8.95-11.71-15.93-21.33-16.68.66,11.37,10.05,21.34,21.27,22.93l-.2,20.24,2.77.03.2-20.24c11.25-1.36,20.83-11.14,21.71-22.5-9.63.56-18.27,7.37-21.65,16.26l.19-19.14c11.25-1.36,20.83-11.14,21.71-22.5-9.63.56-18.27,7.37-21.65,16.25l.19-19.14c11.25-1.36,20.83-11.14,21.71-22.5-9.63.56-18.27,7.37-21.65,16.25l.19-19.14c11.25-1.36,20.83-11.14,21.71-22.5-9.63.56-18.27,7.37-21.65,16.25"/>
    <path class="cls-1" d="m132.04,207.62l.19-19.14c11.25-1.36,20.83-11.14,21.71-22.5-9.63.56-18.27,7.37-21.65,16.25l.13-13.1c6.47-8.92,6.14-22.16-1.09-30.6-7.39,8.3-7.98,21.53-1.69,30.58l-.13,13.1c-3.21-8.95-11.71-15.93-21.33-16.68.66,11.38,10.05,21.34,21.27,22.93l-.19,19.14c-3.21-8.95-11.71-15.93-21.33-16.68.66,11.37,10.05,21.34,21.27,22.93l-.19,19.14c-3.21-8.95-11.71-15.93-21.33-16.68.66,11.37,10.05,21.34,21.27,22.92l-.19,19.14c-3.21-8.95-11.71-15.93-21.33-16.68h0c.66,11.37,10.05,21.34,21.27,22.93l-.19,19.14c-3.21-8.95-11.71-15.93-21.33-16.68.66,11.37,10.05,21.34,21.27,22.93l-.2,20.24,2.77.03.2-20.24c11.25-1.36,20.83-11.14,21.71-22.5-9.63.56-18.27,7.37-21.65,16.26l.19-19.14c11.25-1.36,20.83-11.14,21.71-22.5-9.63.56-18.27,7.37-21.65,16.25l.19-19.14c11.25-1.36,20.83-11.14,21.71-22.5-9.63.56-18.27,7.37-21.65,16.25l.19-19.14c11.25-1.36,20.83-11.14,21.71-22.5-9.63.56-18.27,7.37-21.65,16.25"/>
    <polygon class="cls-1" points="108.25 442.22 115.65 442.22 115.65 463.94 127.39 463.94 127.39 470.61 108.25 470.61 108.25 442.22"/>
    <polygon class="cls-1" points="131.26 442.22 150.96 442.22 150.96 448.88 138.66 448.88 138.66 452.8 147.44 452.8 147.44 458.99 138.66 458.99 138.66 463.94 151.48 463.94 151.48 470.61 131.26 470.61 131.26 442.22"/>
    <path class="cls-1" d="m172.52,468.24h-10.19l-1.03,2.37h-7.96l12.91-28.91h2.37l12.9,28.91h-7.96l-1.03-2.37Zm-5.08-12.52l-2.49,6.58h4.95l-2.45-6.58Z"/>
    <path class="cls-1" d="m201.29,470.61l-6.41-8.82h-3.05v8.82h-7.4v-28.39h11.14c6.32,0,10.97,3.87,10.97,9.76,0,3.48-1.68,6.37-4.47,8.09l7.48,10.54h-8.26Zm-9.46-15.27h3.79c2.06,0,3.4-1.33,3.4-3.35s-1.33-3.31-3.4-3.31h-3.79v6.67Z"/>
    <polygon class="cls-1" points="237.64 442.22 237.64 471.12 235.28 471.12 219.88 456.2 219.88 470.61 212.48 470.61 212.48 441.7 214.85 441.7 230.25 456.41 230.25 442.22 237.64 442.22"/>
    <rect class="cls-1" x="243.32" y="442.22" width="7.4" height="28.39"/>
    <polygon class="cls-1" points="281.57 442.22 281.57 471.12 279.2 471.12 263.8 456.2 263.8 470.61 256.4 470.61 256.4 441.7 258.77 441.7 274.17 456.41 274.17 442.22 281.57 442.22"/>
    <path class="cls-1" d="m301.23,441.7c5.2,0,9.46,2.24,12.22,6.32l-5.16,4.39c-1.85-2.58-4.09-3.91-7.18-3.91-4.78,0-7.74,3.14-7.74,7.91s3.14,8.13,8.17,8.13c2.71,0,4.86-.95,6.24-2.54v-1.33h-6.62v-6.37h14.02v8.95c-1.33,2.37-3.23,4.26-5.68,5.72-2.45,1.42-5.2,2.15-8.26,2.15-8.52.13-15.57-6.49-15.44-14.71-.13-8.17,6.93-14.84,15.44-14.71"/>
    <path class="cls-1" d="m345.32,441.7c5.68,0,10.41,2.8,12.99,7.61l-5.64,3.83c-1.85-3.1-4.3-4.65-7.4-4.65-4.52,0-7.74,3.18-7.74,7.96,0,2.37.73,4.26,2.15,5.72,1.46,1.42,3.31,2.15,5.59,2.15,3.1,0,5.55-1.55,7.4-4.65l5.64,3.83c-2.58,4.82-7.31,7.61-13.03,7.61-8.34.13-15.49-6.49-15.31-14.71-.13-8.13,6.93-14.88,15.36-14.71"/>
    <polygon class="cls-1" points="362.53 442.22 382.23 442.22 382.23 448.88 369.93 448.88 369.93 452.8 378.7 452.8 378.7 458.99 369.93 458.99 369.93 463.94 382.74 463.94 382.74 470.61 362.53 470.61 362.53 442.22"/>
    <polygon class="cls-1" points="412.51 442.22 412.51 471.12 410.15 471.12 394.75 456.2 394.75 470.61 387.35 470.61 387.35 441.7 389.71 441.7 405.11 456.41 405.11 442.22 412.51 442.22"/>
    <polygon class="cls-1" points="424.3 448.88 415.78 448.88 415.78 442.22 440.22 442.22 440.22 448.88 431.7 448.88 431.7 470.61 424.3 470.61 424.3 448.88"/>
    <path class="cls-1" d="m460.35,470.61l-6.41-8.82h-3.05v8.82h-7.4v-28.39h11.14c6.32,0,10.97,3.87,10.97,9.76,0,3.48-1.68,6.37-4.47,8.09l7.48,10.54h-8.26Zm-9.46-15.27h3.79c2.06,0,3.4-1.33,3.4-3.35s-1.33-3.31-3.4-3.31h-3.79v6.67Z"/>
    <polygon class="cls-1" points="471.53 442.22 491.24 442.22 491.24 448.88 478.93 448.88 478.93 452.8 487.71 452.8 487.71 458.99 478.93 458.99 478.93 463.94 491.75 463.94 491.75 470.61 471.53 470.61 471.53 442.22"/>
    <polygon class="cls-1" points="104.12 383.53 104.12 423.8 100.82 423.8 79.36 403 79.36 423.08 69.06 423.08 69.06 382.81 72.35 382.81 93.81 403.3 93.81 383.53 104.12 383.53"/>
    <path class="cls-1" d="m134.92,419.78h-14.2l-1.44,3.3h-11.09l17.98-40.27h3.3l17.98,40.27h-11.09l-1.44-3.3Zm-7.07-17.44l-3.48,9.17h6.89l-3.42-9.17Z"/>
    <polygon class="cls-1" points="155.54 392.81 143.67 392.81 143.67 383.53 177.71 383.53 177.71 392.81 165.84 392.81 165.84 423.08 155.54 423.08 155.54 392.81"/>
    <path class="cls-1" d="m182.03,383.53h10.31v23.55c0,4.49,2.94,7.25,7.19,7.25s7.19-2.76,7.19-7.25v-23.55h10.31v22.77c0,10.43-7.49,17.5-17.5,17.5s-17.5-6.95-17.5-17.5v-22.77Z"/>
    <path class="cls-1" d="m248.19,423.08l-8.93-12.29h-4.25v12.29h-10.31v-39.56h15.52c8.81,0,15.28,5.39,15.28,13.6,0,4.85-2.34,8.87-6.23,11.27l10.43,14.68h-11.51Zm-13.18-21.28h5.27c2.88,0,4.73-1.86,4.73-4.67s-1.86-4.61-4.73-4.61h-5.27v9.29Z"/>
    <polygon class="cls-1" points="263.77 383.53 291.22 383.53 291.22 392.81 274.08 392.81 274.08 398.27 286.31 398.27 286.31 406.9 274.08 406.9 274.08 413.79 291.94 413.79 291.94 423.08 263.77 423.08 263.77 383.53"/>
    <polygon class="cls-1" points="315.13 383.53 342.58 383.53 342.58 392.81 325.44 392.81 325.44 398.27 337.67 398.27 337.67 406.9 325.44 406.9 325.44 413.79 343.3 413.79 343.3 423.08 315.13 423.08 315.13 383.53"/>
    <polygon class="cls-1" points="395.56 392.81 383.69 392.81 383.69 383.53 417.73 383.53 417.73 392.81 405.87 392.81 405.87 423.08 395.56 423.08 395.56 392.81"/>
    <path class="cls-1" d="m440.69,419.78h-14.2l-1.44,3.3h-11.09l17.98-40.27h3.3l17.98,40.27h-11.09l-1.44-3.3Zm-7.07-17.44l-3.48,9.17h6.89l-3.42-9.17Z"/>
    <polygon class="cls-1" points="492.35 383.53 492.35 423.8 489.05 423.8 467.6 403 467.6 423.08 457.29 423.08 457.29 382.81 460.59 382.81 482.04 403.3 482.04 383.53 492.35 383.53"/>
    <polygon class="cls-1" points="508.77 392.81 496.9 392.81 496.9 383.53 530.95 383.53 530.95 392.81 519.08 392.81 519.08 423.08 508.77 423.08 508.77 392.81"/>
    <polygon class="cls-1" points="361.74 416.27 364.42 412.03 364.4 411.99 361.74 416.27"/>
    <polygon class="cls-1" points="373.03 396.89 373.71 397.32 382.2 383.53 370.57 383.53 364.4 394.07 358.22 383.53 346.6 383.53 358.76 403 345.88 423.08 357.5 423.08 361.74 416.27 362.19 415.54 361.51 415.11 373.03 396.89"/>
    <polygon class="cls-1" points="384.59 425.19 372.25 405.79 366.5 414.89 372.96 425.19 384.59 425.19"/>
    <polygon class="cls-1" points="370.21 403 373.71 397.32 373.02 396.89 361.51 415.11 362.19 415.54 364.4 411.99 364.42 412.03 364.89 412.78 370.64 403.68 370.21 403"/>
  </g>
</svg>